# xmcd CD database file
#
# Track frame offsets:
#	150
#	15265
#	36798
#	54902
#	75793
#	88348
#	104295
#	126284
#	147527
#	168609
#	185741
#	202683
#
# Disc length: 2934 seconds
#
# Revision: 0
# Processed by: cddbd v1.5.2PL0 Copyright (c) Steve Scherf et al.
# Submitted via: jetAudio 7
#
DISCID=960b740c
DTITLE=Harry Niehof - Straks is t weer janken
DYEAR=1900
DGENRE=Blues
TTITLE0=aal dij dinkjes
TTITLE1=geef mie meer
TTITLE2=dat bistoe
TTITLE3=dresden
TTITLE4=ooit
TTITLE5=schaaiden
TTITLE6=winter
TTITLE7=ieskeunegin
TTITLE8=straks is t weer janken
TTITLE9=haart van klaai
TTITLE10=klaain café
TTITLE11=verloren laid
EXTD=
EXTT0=
EXTT1=
EXTT2=
EXTT3=
EXTT4=
EXTT5=
EXTT6=
EXTT7=
EXTT8=
EXTT9=
EXTT10=
EXTT11=
PLAYORDER=
